<?xml version="1.0" encoding="UTF-8" standalone="no"?>
<svg xmlns="http://www.w3.org/2000/svg" viewBox="0 0 1024 1024" width="1024" height="1024">
  <path d="M512 0C229.23 0 0 229.23 0 512s229.23 512 512 512 512-229.23 512-512S794.77 0 512 0zm0 60c249.64 0 452 202.36 452 452s-202.36 452-452 452S60 761.64 60 512 262.36 60 512 60z" fill="#fff"/>
  <path d="M512 60C262.36 60 60 262.36 60 512s202.36 452 452 452 452-202.36 452-452S761.64 60 512 60zm0 40c227.7 0 412 184.3 412 412s-184.3 412-412 412S100 739.7 100 512 284.3 100 512 100z" fill="#1a1a1a"/>
  <path d="M512 100C284.3 100 100 284.3 100 512s184.3 412 412 412 412-184.3 412-412S739.7 100 512 100zm-1.3 100h2.6c188.05 0 340.7 152.65 340.7 340.7v2.6c0 188.05-152.65 340.7-340.7 340.7h-2.6c-188.05 0-340.7-152.65-340.7-340.7v-2.6c0-188.05 152.65-340.7 340.7-340.7z" fill="#1a1a1a"/>
  <path d="M510.7 200h2.6c188.05 0 340.7 152.65 340.7 340.7v2.6c0 188.05-152.65 340.7-340.7 340.7h-2.6c-188.05 0-340.7-152.65-340.7-340.7v-2.6c0-188.05 152.65-340.7 340.7-340.7z" fill="#1a1a1a"/>
  <path d="M185.48 420.17h132.9l-22.15 88.6h-44.3l11.08-44.3h-44.3l-11.07 44.3h-44.3l22.14-88.6zm176.56 0h44.3l-22.15 88.6h-44.3l22.15-88.6zm66.44 0h44.3l-5.53 22.15h44.3l5.54-22.15h44.3l-22.15 88.6h-44.3l5.54-22.15h-44.3l-5.54 22.15h-44.3l22.14-88.6zm171.03 0h110.75l-5.54 22.15h-66.45l-2.77 11.07h55.37l-5.53 22.15h-55.38l-2.77 11.08h66.45l-5.54 22.15H498.36l22.15-88.6zm-377.2 132.9h398.7v22.15h-398.7v-22.15zm442.98 0h154.4v22.15h-154.4v-22.15z" fill="#fff"/>
</svg>
